<svg xmlns="https://www.w3.org/2000/svg"
    xmlns:xlink="https://www.w3.org/1999/xlink" width="60.39" height="74.238" viewBox="0 0 60.39 74.238">
    <defs>

        <Circle
stroke = "#2162cc"
fill = "none"
cx = {(width -32)/2}
cy = {(width -32)/2}
r = {(width -32)/2}
>

</Circle>


<linearGradient id="linear-gradient" x1="0.5" x2="0.5" y2="1" gradientUnits="objectBoundingBox">
            <stop offset="0" stop-color="#007297"></stop>
            <stop offset="1" stop-color="#2a4da0"></stop>
        </linearGradient>
    </defs>
    <path id="Subtraction_13" data-name="Subtraction 13" d="M4247.01,2740.95v0h-.175l-3.26,0c-9.958,0-21.859-3.408-25.4-12.975-.2-.712-.465-1.588-.675-2.271h.064a18.259,18.259,0,0,1-.43-3.847v-25.53l28.025-29.609h11.12a25.864,25.864,0,0,1,11.211,2.241,16.962,16.962,0,0,1,6.383,5.219,19.414,19.414,0,0,1,3.632,10.343c.013.388.026,25.427.013,25.517l-30.512,30.916Zm-15.163-59.364v25.479q0,.249,0,.513c.006,2.98.015,7.061,1.671,10.48a9.969,9.969,0,0,0,3.919,4.33,14.865,14.865,0,0,0,7.62,1.77c.485,0,14.466.014,17.758.021,0-1.631-.008-6.176-.014-10.324l0-1.677c0-2.24,0-4.209-.005-5.315v-.414c0-.3,0-.488,0-.523,0-7.23-.71-12.979-2.112-17.089-1.642-4.811-4.208-7.25-7.627-7.25Z" transform="translate(-4217.139 -2666.713)" fill="url(#linear-gradient)"></path>
</svg>